<?xml version="1.0" encoding="UTF-8"?><svg id="Ebene_1" xmlns="http://www.w3.org/2000/svg" xmlns:xlink="http://www.w3.org/1999/xlink" viewBox="0 0 489.08 283.3"><defs><style>.cls-1{fill:url(#Neues_Verlaufsfeld_1-3);}.cls-2{fill:url(#Neues_Verlaufsfeld_1-7);}.cls-3{fill:url(#Neues_Verlaufsfeld_1-6);}.cls-4{fill:url(#Neues_Verlaufsfeld_1-5);}.cls-5{fill:url(#Neues_Verlaufsfeld_1-4);}.cls-6{fill:url(#Neues_Verlaufsfeld_1);}.cls-7{fill:url(#Neues_Verlaufsfeld_1-2);}.cls-8{fill:#1d1d1b;}</style><linearGradient id="Neues_Verlaufsfeld_1" x1="170.05" y1="72.15" x2="318.89" y2="239.28" gradientUnits="userSpaceOnUse"><stop offset="0" stop-color="#e94e1b"/><stop offset="1" stop-color="#f39200"/></linearGradient><linearGradient id="Neues_Verlaufsfeld_1-2" x1="186.66" y1="57.36" x2="335.49" y2="224.5" xlink:href="#Neues_Verlaufsfeld_1"/><linearGradient id="Neues_Verlaufsfeld_1-3" x1="219.17" y1="28.41" x2="368" y2="195.55" xlink:href="#Neues_Verlaufsfeld_1"/><linearGradient id="Neues_Verlaufsfeld_1-4" x1="183.56" y1="60.12" x2="332.39" y2="227.26" xlink:href="#Neues_Verlaufsfeld_1"/><linearGradient id="Neues_Verlaufsfeld_1-5" x1="162.24" y1="79.1" x2="311.08" y2="246.24" xlink:href="#Neues_Verlaufsfeld_1"/><linearGradient id="Neues_Verlaufsfeld_1-6" x1="241.49" y1="8.53" x2="390.33" y2="175.67" xlink:href="#Neues_Verlaufsfeld_1"/><linearGradient id="Neues_Verlaufsfeld_1-7" x1="209.22" y1="37.27" x2="358.06" y2="204.4" xlink:href="#Neues_Verlaufsfeld_1"/></defs><rect class="cls-8" x="337.13" y="107.23" width="6.16" height="26.64"/><path class="cls-8" d="m84.26,118.75c1.58,0,2.65.77,3.2,2.3h6.55c-.53-2.4-1.64-4.26-3.33-5.58-1.69-1.32-3.8-1.98-6.32-1.98-1.97,0-3.71.42-5.24,1.26-1.52.84-2.71,2.04-3.56,3.6-.85,1.56-1.28,3.38-1.28,5.47s.43,3.91,1.28,5.47c.85,1.56,2.04,2.76,3.56,3.6,1.52.84,3.27,1.26,5.24,1.26,2.5,0,4.6-.67,6.3-2.02,1.7-1.34,2.82-3.19,3.35-5.54h-6.55c-.55,1.54-1.62,2.3-3.2,2.3-1.13,0-2.03-.44-2.7-1.31s-1.01-2.13-1.01-3.76.34-2.89,1.01-3.76c.67-.88,1.57-1.31,2.7-1.31Z"/><path class="cls-8" d="m111.83,114.76c-1.58-.84-3.36-1.26-5.33-1.26s-3.74.42-5.33,1.26c-1.58.84-2.83,2.05-3.74,3.62-.91,1.57-1.37,3.39-1.37,5.45s.45,3.91,1.35,5.47c.9,1.56,2.14,2.76,3.71,3.6,1.57.84,3.34,1.26,5.31,1.26s3.75-.42,5.35-1.26c1.6-.84,2.86-2.04,3.78-3.62.92-1.57,1.39-3.39,1.39-5.45s-.46-3.88-1.37-5.45c-.91-1.57-2.16-2.78-3.74-3.62Zm-2.39,12.78c-.83.86-1.83,1.3-3.01,1.3s-2.15-.43-2.93-1.3c-.78-.86-1.17-2.1-1.17-3.71s.4-2.87,1.19-3.73c.79-.85,1.79-1.28,2.99-1.28s2.17.43,2.97,1.3c.8.86,1.21,2.1,1.21,3.71s-.41,2.84-1.24,3.71Z"/><path class="cls-8" d="m145.85,113.57c-1.42,0-2.72.35-3.92,1.04-1.2.7-2.15,1.6-2.84,2.7-.67-1.2-1.6-2.12-2.79-2.77-1.19-.65-2.54-.97-4.05-.97-1.27,0-2.41.25-3.42.74-1.01.49-1.82,1.16-2.45,2v-2.52h-6.16v20.09h6.16v-10.91c0-1.3.34-2.3,1.03-3.01s1.63-1.06,2.83-1.06,2.14.35,2.83,1.06,1.03,1.71,1.03,3.01v10.91h6.12v-10.91c0-1.3.34-2.3,1.03-3.01.68-.71,1.63-1.06,2.83-1.06s2.14.35,2.83,1.06,1.03,1.71,1.03,3.01v10.91h6.12v-11.74c0-2.69-.74-4.79-2.21-6.3-1.48-1.51-3.46-2.27-5.96-2.27Z"/><path class="cls-8" d="m178.38,129.25c.78-1.57,1.17-3.39,1.17-5.45s-.39-3.88-1.17-5.44c-.78-1.56-1.84-2.76-3.19-3.6-1.34-.84-2.84-1.26-4.5-1.26-1.39,0-2.63.29-3.71.86-1.08.58-1.91,1.33-2.48,2.27v-9.4h-6.16v26.64h6.16v-2.81c.6.94,1.43,1.69,2.48,2.25,1.06.56,2.29.85,3.71.85,1.66,0,3.16-.43,4.5-1.28,1.34-.85,2.41-2.06,3.19-3.64Zm-6.39-1.8c-.86.9-1.91,1.35-3.13,1.35s-2.26-.44-3.11-1.33c-.85-.89-1.28-2.1-1.28-3.64s.43-2.75,1.28-3.64c.85-.89,1.89-1.33,3.11-1.33s2.3.44,3.15,1.31c.85.88,1.28,2.08,1.28,3.62s-.43,2.75-1.3,3.65Z"/><rect class="cls-8" x="182.79" y="113.79" width="6.16" height="20.09"/><path class="cls-8" d="m213.39,133.87v-11.74c0-2.66-.7-4.76-2.11-6.28-1.4-1.52-3.28-2.29-5.63-2.29-1.32,0-2.51.26-3.56.77-1.06.52-1.9,1.22-2.52,2.11v-2.66h-6.16v20.09h6.16v-10.91c0-1.34.35-2.39,1.04-3.13.7-.74,1.63-1.12,2.81-1.12s2.11.37,2.81,1.12c.7.74,1.04,1.79,1.04,3.13v10.91h6.12Z"/><path class="cls-8" d="m221.8,114.76c-1.34.84-2.41,2.04-3.19,3.6-.78,1.56-1.17,3.37-1.17,5.44s.39,3.88,1.17,5.45c.78,1.57,1.84,2.78,3.19,3.64,1.34.85,2.83,1.28,4.46,1.28,1.42,0,2.66-.29,3.73-.86,1.07-.58,1.9-1.33,2.5-2.27v2.84h6.16v-20.09h-6.16v2.84c-.58-.94-1.4-1.69-2.47-2.27-1.07-.58-2.31-.86-3.73-.86-1.66,0-3.16.42-4.5,1.26Zm9.41,5.44c.85.89,1.28,2.1,1.28,3.64s-.43,2.75-1.28,3.64c-.85.89-1.89,1.33-3.11,1.33s-2.26-.45-3.11-1.35c-.85-.9-1.28-2.12-1.28-3.65s.43-2.74,1.28-3.62,1.89-1.31,3.11-1.31,2.26.45,3.11,1.33Z"/><path class="cls-8" d="m245.09,108.89v4.9h-2.45v5.11h2.45v7.99c0,2.47.62,4.25,1.87,5.35,1.25,1.09,2.99,1.64,5.22,1.64h3.13v-5.22h-2.2c-.67,0-1.15-.13-1.44-.4-.29-.26-.43-.7-.43-1.3v-8.06h4.03v-5.11h-4.03v-4.9h-6.16Z"/><path class="cls-8" d="m274.22,132.9c1.6-.84,2.86-2.04,3.78-3.62.92-1.57,1.39-3.39,1.39-5.45s-.46-3.88-1.37-5.45c-.91-1.57-2.16-2.78-3.74-3.62-1.58-.84-3.36-1.26-5.33-1.26s-3.74.42-5.33,1.26c-1.58.84-2.83,2.05-3.74,3.62-.91,1.57-1.37,3.39-1.37,5.45s.45,3.91,1.35,5.47c.9,1.56,2.14,2.76,3.71,3.6,1.57.84,3.34,1.26,5.31,1.26s3.75-.42,5.35-1.26Zm-9.45-9.07c0-1.63.4-2.87,1.19-3.73.79-.85,1.79-1.28,2.99-1.28s2.17.43,2.97,1.3c.8.86,1.21,2.1,1.21,3.71s-.41,2.84-1.24,3.71c-.83.86-1.83,1.3-3.01,1.3s-2.15-.43-2.93-1.3c-.78-.86-1.17-2.1-1.17-3.71Z"/><path class="cls-8" d="m283.66,113.79v20.09h6.16v-9.32c0-1.66.38-2.81,1.15-3.47.77-.66,1.92-.99,3.46-.99h1.69v-6.52c-1.32,0-2.52.32-3.6.95-1.08.64-1.98,1.51-2.7,2.61v-3.35h-6.16Z"/><rect class="cls-8" x="300.07" y="113.79" width="6.16" height="20.09"/><path class="cls-8" d="m331.67,113.79h-6.16v2.84c-.58-.94-1.4-1.69-2.47-2.27-1.07-.58-2.31-.86-3.73-.86-1.66,0-3.16.42-4.5,1.26-1.34.84-2.41,2.04-3.19,3.6-.78,1.56-1.17,3.37-1.17,5.44s.39,3.88,1.17,5.45c.78,1.57,1.84,2.78,3.19,3.64,1.34.85,2.83,1.28,4.46,1.28,1.42,0,2.66-.29,3.73-.86,1.07-.58,1.9-1.33,2.5-2.27v2.84h6.16v-20.09Zm-7.43,13.68c-.85.89-1.89,1.33-3.11,1.33s-2.26-.45-3.11-1.35c-.85-.9-1.28-2.12-1.28-3.65s.43-2.74,1.28-3.62,1.89-1.31,3.11-1.31,2.26.45,3.11,1.33c.85.89,1.28,2.1,1.28,3.64s-.43,2.75-1.28,3.64Z"/><path class="cls-8" d="m226.07,167.72c1.37.6,2.93.9,4.68.9,1.63,0,3.07-.26,4.3-.79,1.24-.53,2.18-1.25,2.84-2.18s.99-1.97.99-3.15c-.02-1.39-.39-2.5-1.1-3.33-.71-.83-1.53-1.43-2.47-1.8s-2.15-.75-3.64-1.13c-1.3-.29-2.25-.58-2.86-.86s-.92-.72-.92-1.3c0-.48.19-.86.58-1.13.38-.28.94-.41,1.66-.41.84,0,1.52.2,2.03.61.52.41.82.96.92,1.66h5.69c-.22-2.06-1.05-3.72-2.5-4.97-1.45-1.25-3.44-1.87-5.96-1.87-1.7,0-3.17.28-4.41.83-1.24.55-2.17,1.3-2.81,2.25-.64.95-.95,2-.95,3.15,0,1.37.35,2.46,1.04,3.26.7.8,1.52,1.39,2.48,1.76.96.37,2.16.73,3.6,1.06,1.34.34,2.32.64,2.92.92.6.28.9.7.9,1.28,0,.48-.21.87-.63,1.17-.42.3-1.01.45-1.78.45-.84,0-1.55-.22-2.12-.65-.58-.43-.9-1-.97-1.69h-6.08c.1,1.3.54,2.47,1.33,3.51s1.87,1.87,3.24,2.47Z"/><polygon class="cls-8" points="248.78 177.8 265.68 148.24 258.52 148.24 251.48 160.74 247.27 148.24 240.39 148.24 247.57 167.65 241.49 177.69 248.78 177.8"/><path class="cls-8" d="m311.61,157.96c0-2.02-.43-3.78-1.28-5.29-.85-1.51-2.03-2.68-3.55-3.49-1.51-.82-3.24-1.22-5.18-1.22s-3.76.42-5.29,1.26c-1.54.84-2.73,2.04-3.58,3.6-.85,1.56-1.28,3.38-1.28,5.47s.43,3.91,1.3,5.47c.86,1.56,2.06,2.76,3.6,3.6,1.54.84,3.29,1.26,5.26,1.26,1.63,0,3.11-.3,4.43-.9,1.32-.6,2.42-1.43,3.29-2.48s1.48-2.24,1.82-3.56h-6.55c-.6,1.3-1.67,1.94-3.2,1.94-1.03,0-1.9-.33-2.61-.99-.71-.66-1.11-1.61-1.21-2.86h13.93c.07-.62.11-1.22.11-1.8Zm-14-1.62c.17-1.1.61-1.96,1.31-2.56.71-.6,1.58-.9,2.61-.9s1.98.31,2.7.94c.72.62,1.08,1.46,1.08,2.52h-7.7Z"/><path class="cls-8" d="m346.08,151.09c-.58-.94-1.4-1.69-2.47-2.27-1.07-.58-2.31-.86-3.73-.86-1.66,0-3.16.42-4.5,1.26-1.34.84-2.41,2.04-3.19,3.6-.78,1.56-1.17,3.37-1.17,5.44s.39,3.88,1.17,5.45c.78,1.57,1.84,2.78,3.19,3.64,1.34.85,2.84,1.28,4.5,1.28,1.42,0,2.65-.29,3.71-.88,1.06-.59,1.88-1.35,2.48-2.29v2.84c0,1.61-.38,2.78-1.13,3.51s-1.77,1.1-3.04,1.1c-1.06,0-1.94-.22-2.66-.67-.72-.44-1.18-1.05-1.37-1.82h-6.08c.26,2.4,1.32,4.3,3.17,5.71,1.85,1.4,4.26,2.11,7.24,2.11,2.23,0,4.1-.44,5.6-1.33,1.5-.89,2.62-2.08,3.35-3.58.73-1.5,1.1-3.17,1.1-5.02v-20.05h-6.16v2.84Zm-1.28,10.84c-.85.89-1.89,1.33-3.11,1.33s-2.26-.45-3.11-1.35c-.85-.9-1.28-2.12-1.28-3.65s.43-2.74,1.28-3.62c.85-.88,1.89-1.31,3.11-1.31s2.26.44,3.11,1.33,1.28,2.1,1.28,3.64-.43,2.75-1.28,3.64Z"/><rect class="cls-8" x="356.7" y="148.24" width="6.16" height="20.09"/><path class="cls-8" d="m382.44,149.18c-1.51-.82-3.24-1.22-5.18-1.22s-3.76.42-5.29,1.26c-1.54.84-2.73,2.04-3.58,3.6-.85,1.56-1.28,3.38-1.28,5.47s.43,3.91,1.3,5.47c.86,1.56,2.06,2.76,3.6,3.6s3.29,1.26,5.26,1.26c1.63,0,3.11-.3,4.43-.9,1.32-.6,2.42-1.43,3.29-2.48s1.48-2.24,1.82-3.56h-6.55c-.6,1.3-1.67,1.94-3.2,1.94-1.03,0-1.9-.33-2.61-.99-.71-.66-1.11-1.61-1.21-2.86h13.93c.07-.62.11-1.22.11-1.8,0-2.02-.43-3.78-1.28-5.29-.85-1.51-2.03-2.68-3.55-3.49Zm-9.18,7.16c.17-1.1.61-1.96,1.31-2.56.71-.6,1.58-.9,2.61-.9s1.98.31,2.7.94c.72.62,1.08,1.46,1.08,2.52h-7.7Z"/><path class="cls-8" d="m406.71,159.17c-.71-.83-1.53-1.43-2.47-1.8-.94-.37-2.15-.75-3.64-1.13-1.3-.29-2.25-.58-2.86-.86-.61-.29-.92-.72-.92-1.3,0-.48.19-.86.58-1.13.38-.28.94-.41,1.66-.41.84,0,1.52.2,2.03.61.52.41.82.96.92,1.66h5.69c-.22-2.06-1.05-3.72-2.5-4.97s-3.44-1.87-5.96-1.87c-1.7,0-3.17.28-4.41.83s-2.17,1.3-2.81,2.25c-.64.95-.95,2-.95,3.15,0,1.37.35,2.46,1.04,3.26s1.52,1.39,2.48,1.76c.96.37,2.16.73,3.6,1.06,1.34.34,2.32.64,2.92.92.6.28.9.7.9,1.28,0,.48-.21.87-.63,1.17-.42.3-1.01.45-1.78.45-.84,0-1.55-.22-2.12-.65-.58-.43-.9-1-.97-1.69h-6.08c.1,1.3.54,2.47,1.33,3.51s1.87,1.87,3.24,2.47c1.37.6,2.93.9,4.68.9,1.63,0,3.07-.26,4.3-.79,1.24-.53,2.18-1.25,2.84-2.18s.99-1.97.99-3.15c-.02-1.39-.39-2.5-1.1-3.33Z"/><path class="cls-8" d="m273.57,157.42c0-1.34.35-2.39,1.04-3.13.7-.74,1.63-1.12,2.81-1.12s2.11.37,2.81,1.12c.7.74,1.04,1.79,1.04,3.13v10.91h6.12v-11.74c0-2.66-.7-4.76-2.11-6.28s-3.28-2.29-5.63-2.29c-1.32,0-2.51.26-3.56.77-1.06.52-1.9,1.22-2.52,2.11v-2.66h-6.16v20.09h6.16v-10.91Z"/><path class="cls-8" d="m315.85,168.33h6.16v-9.32c0-1.66.38-2.81,1.15-3.47.77-.66,1.92-.99,3.46-.99h1.69v-6.52c-1.32,0-2.52.32-3.6.95s-1.98,1.51-2.7,2.61v-3.35h-6.16v20.09Z"/><path class="cls-6" d="m228.86,138.03c.51,2.71.49,3.23,1.46,6.58.21.75.91,1.27,1.68,1.27.16,0,.32-.02.48-.07.45-.13.82-.42,1.05-.83.22-.41.28-.88.15-1.33-.92-3.21-.89-3.66-1.38-6.26-.09-.46-.35-.86-.74-1.12-.39-.26-.85-.36-1.31-.27-.95.18-1.57,1.1-1.39,2.04Z"/><path class="cls-7" d="m228.79,97.56c-.96.03-1.72.84-1.69,1.8.13,4.09.14,6.85.21,11.07.02.95.8,1.72,1.75,1.72h.03c.96-.02,1.74-.81,1.72-1.87-.06-4.08-.08-6.93-.2-11.03-.03-.95-.78-1.67-1.81-1.69Z"/><path class="cls-1" d="m318.97,145.55c.85,0,1.58-.61,1.72-1.45l.1-.56c.32-1.84.53-3.06.76-5.21.05-.46-.08-.92-.37-1.29-.29-.36-.71-.59-1.15-.64-.47-.06-.92.06-1.28.34-.38.29-.62.73-.67,1.2-.23,2.07-.42,3.19-.75,5.07l-.09.49c-.16.95.48,1.86,1.45,2.02.1.01.19.02.28.02Z"/><path class="cls-5" d="m280.68,200.24c.31,0,.62-.08.88-.24,14.43-8.37,22.28-15.8,28.98-27.42.48-.84.19-1.91-.65-2.39-.83-.48-1.91-.19-2.39.65-6.35,11.03-13.85,18.11-27.7,26.14-.41.23-.69.61-.82,1.06-.12.45-.06.93.18,1.33.31.54.89.87,1.52.87Z"/><path class="cls-4" d="m336.51,181.04c-.83-.48-1.91-.2-2.39.63l-21.45,36.75c-1.97-.45-4.03.16-5.44,1.61-26.23-13.27-39.75-24.48-54.22-39.33-.33-.33-.76-.52-1.25-.53-.48,0-.9.18-1.23.5-.33.33-.52.76-.53,1.23s.17.91.5,1.24c14.42,14.8,27.9,26.03,53.46,39.15h-76.77c16.09-5,29.52-9.67,41.89-15.68.42-.2.74-.56.89-1s.12-.92-.08-1.34c-.42-.87-1.46-1.23-2.34-.81-13.37,6.49-28.04,11.44-47.34,17.31-1.38-2.03-3.91-3.03-6.36-2.29l-38.99-78.09c-.21-.42-.57-.73-1.01-.88-.44-.15-.92-.12-1.34.09-.42.21-.73.57-.88,1.01-.15.44-.12.92.09,1.34l39.2,78.51c-.82,1.03-1.27,2.28-1.27,3.57,0,3.2,2.6,5.8,5.8,5.8,2.53,0,4.73-1.65,5.49-4.05h84.93c.76,2.4,2.96,4.05,5.49,4.05,3.2,0,5.8-2.6,5.8-5.8,0-1.42-.53-2.76-1.49-3.83l21.47-36.77c.24-.4.3-.88.18-1.33-.12-.45-.41-.83-.81-1.07Zm-121.06,45.29c-1.27,0-2.3-1.03-2.3-2.3s1.03-2.3,2.3-2.3,2.3,1.03,2.3,2.3-1.03,2.3-2.3,2.3Zm95.91,0c-1.27,0-2.3-1.03-2.3-2.3s1.03-2.3,2.3-2.3,2.3,1.03,2.3,2.3-1.03,2.3-2.3,2.3Z"/><path class="cls-3" d="m363.21,136.54c-1.34-1.01-3.01-1.37-4.64-1.02l-9.58-16.77c-.23-.41-.61-.7-1.06-.82-.45-.13-.92-.06-1.32.17-.41.23-.7.61-.82,1.06s-.06.92.17,1.33l9.58,16.78c-.19.21-.37.42-.53.66-1.89-1.24-3.9-2.17-6.62-3.71-.4-.23-.91-.17-1.34.02-.43.19-.76.53-.93.96-.36.9.13,1.82.98,2.27,2.69,1.42,4.7,2.56,6.85,3.79.04,3.16,2.62,5.72,5.8,5.72s5.8-2.6,5.8-5.8c0-1.81-.87-3.54-2.32-4.63Zm-3.47,6.93c-1.27,0-2.3-1.03-2.3-2.3s1.03-2.3,2.3-2.3,2.3,1.03,2.3,2.3-1.03,2.3-2.3,2.3Z"/><path class="cls-2" d="m315.67,60.41c1.02-1.08,1.58-2.46,1.58-3.94,0-3.2-2.6-5.8-5.8-5.8-2.53,0-4.73,1.64-5.49,4.05h-85.04c-.76-2.4-2.96-4.05-5.49-4.05-3.2,0-5.8,2.6-5.8,5.8,0,1.17.37,2.31,1.08,3.3l-24.35,41.2c-.15-.02-.29-.03-.44-.03-3.2,0-5.8,2.6-5.8,5.8s2.6,5.8,5.8,5.8,5.8-2.6,5.8-5.8c0-.13,0-.26-.02-.39,44.88-19.04,78.17-14,105.71-.51-.05.29-.08.59-.08.9,0,3.2,2.6,5.8,5.8,5.8s5.8-2.6,5.8-5.8-2.6-5.8-5.8-5.8c-1.63,0-3.1.68-4.16,1.77-27.35-13.41-60.21-19.71-108.58.39-.23-.28-.49-.54-.77-.78l23.88-40.41c1.29.47,2.62.47,3.91-.03,7.04,10.01,8.62,16.84,9.27,25.99.07.92.85,1.62,1.87,1.62h0c.47-.03.89-.25,1.2-.6.31-.35.46-.8.42-1.27-.69-9.71-2.38-17.17-9.99-27.9.32-.47.57-.97.74-1.51h85.03c.7,2.23,2.68,3.82,5,4.02,4.26,19.19,6.47,33.13,7.36,46.56.06.93.84,1.63,1.86,1.63h0c.47-.03.89-.24,1.2-.59.31-.35.46-.8.43-1.27-.8-12.05-2.71-24.82-6.13-41.06l19.92,34.89c.46.81,1.58,1.12,2.39.65.84-.48,1.13-1.55.65-2.39l-22.98-40.24Zm-12.53,44.03c1.27,0,2.3,1.03,2.3,2.3s-1.03,2.3-2.3,2.3-2.3-1.03-2.3-2.3,1.03-2.3,2.3-2.3Zm-117.21,4.59c-1.27,0-2.3-1.03-2.3-2.3s1.03-2.3,2.3-2.3,2.3,1.03,2.3,2.3-1.03,2.3-2.3,2.3Zm29.51-50.27c-1.27,0-2.3-1.03-2.3-2.3s1.03-2.3,2.3-2.3,2.3,1.03,2.3,2.3-1.03,2.3-2.3,2.3Zm96.01,0c-1.27,0-2.3-1.03-2.3-2.3s1.03-2.3,2.3-2.3,2.3,1.03,2.3,2.3-1.03,2.3-2.3,2.3Z"/></svg>